<svg xmlns="http://www.w3.org/2000/svg" version="1.1" xmlns:xlink="http://www.w3.org/1999/xlink" xmlns:svgjs="http://svgjs.dev/svgjs" viewBox="0 0 1422 800" width="1422" height="800"><g transform="scale(1) rotate(0) translate(0 0) skewX(0) skewY(0)" transform-origin="711 400"><rect width="2844" height="1600" x="-711" y="-400" fill="url(#rrreplicate-pattern1)"></rect><rect width="2844" height="1600" x="-711" y="-400" fill="url(#rrreplicate-pattern2)"></rect><rect width="2844" height="1600" x="-711" y="-400" fill="url(#rrreplicate-pattern3)"></rect></g><defs><pattern id="rrreplicate-pattern1" width="592" height="592" patternUnits="userSpaceOnUse" patternTransform="rotate(30)" stroke-width="4" fill="none" stroke="#003153" stroke-opacity="0.48">
      <line x1="74" y1="0" x2="74" y2="592"></line><line x1="222" y1="0" x2="222" y2="592"></line><line x1="370" y1="0" x2="370" y2="592"></line><line x1="518" y1="0" x2="518" y2="592"></line>
      </pattern><pattern id="rrreplicate-pattern2" width="592" height="592" patternUnits="userSpaceOnUse" patternTransform="rotate(30)" stroke-opacity="0.67" stroke-width="2.2" fill="none" stroke="#3d7dca">
      <line x1="148" y1="0" x2="148" y2="592"></line><line x1="444" y1="0" x2="444" y2="592"></line>
      </pattern><pattern id="rrreplicate-pattern3" width="592" height="592" patternUnits="userSpaceOnUse" patternTransform="rotate(115)" stroke-opacity="1" stroke-width="1.2" fill="none" stroke="#ffcc00">
      <line x1="74" y1="0" x2="74" y2="592"></line><line x1="222" y1="0" x2="222" y2="592"></line><line x1="370" y1="0" x2="370" y2="592"></line><line x1="518" y1="0" x2="518" y2="592"></line>
      </pattern></defs></svg>